# xmcd
#
# Track frame offsets:
#       150
#       911
#       8545
#       10417
#       27129
#       34324
#       50014
#       65244
#       79437
#       83950
#       96835
#       115041
#       123780
#       132432
#       148272
#       165566
#       178643
#       187053
#       205588
#       235970
#       247768
#       257174
#       274349
#       291535
#       301755
#       312955
#       318205
#       336833
#       346480
#       356334
#
# Disc length: 4792 seconds
#
# Revision: 0
# Processed by: cddbd v1.5.2PL0 Copyright (c) Steve Scherf et al.
# Submitted via: WaveLab 4.01
#
DISCID=af12b61e
DTITLE=CharliMo - Mind Set of A Hustler
DYEAR=2007
DGENRE=Hip Hop
TTITLE0=Intro:Jen the pen(B.E.T Ultimate Hustler,Kitty Radio)
TTITLE1=Presidental Debate 911:50cent,Jayz,Kanye West
TTITLE2=Feature Presentation:Scenario(Director behind Fabolous&Red Cafe Videos
TTITLE3=Southside:50cent
TTITLE4=Big Brother:Kanye West
TTITLE5=On Some Shit:50cent,Lloyd Banks,Tony Yayo
TTITLE6=Barry Bonds:Kanye West,Lil Wayne
TTITLE7=Partime lover:50cent
TTITLE8=Champion:Kanye West
TTITLE9=Get Money Remix:50cent, Nina B
TTITLE10=Cant tell me nothing Remix:Kanye West,Young Jeezy
TTITLE11=Crank that:Jae Mills
TTITLE12=Informer:Umcle Murda
TTITLE13=Streets been good:Maino
TTITLE14=Unsigned Artist of the Month:F.R.E.S.H
TTITLE15=Xclusive:Cassidy
TTITLE16=Victory:Grafh
TTITLE17=Take Chances:Papoose
TTITLE18=Xclusive:Fabolous,Freck Billionaire,Red Cafe,Joe Budden,Paul Cain
TTITLE19=My City:Esso,Skyzoo,Stimuli
TTITLE20=Lyrical Homocide:Game,Lil Wayne
TTITLE21=Xclusive:Snoop,Game
TTITLE22=Badside:Lil Wayne, Juelz
TTITLE23=Hustle:B.G,Jeezy
TTITLE24=Hood:Gorilla Zoe,RickRoss,Jeezy
TTITLE25=ROC:Lil Easy,Jayz
TTITLE26=Levels:Talib Kweli,Styles P
TTITLE27=Street Corner(V.A)Spotlight:Champain
TTITLE28=StreetCorner(B.k)Spotlight:June Crux
TTITLE29=Mindset of a Husler:Outro
EXTD=
EXTT0=
EXTT1=
EXTT2=
EXTT3=
EXTT4=
EXTT5=
EXTT6=
EXTT7=
EXTT8=
EXTT9=
EXTT10=
EXTT11=
EXTT12=
EXTT13=
EXTT14=
EXTT15=
EXTT16=
EXTT17=
EXTT18=
EXTT19=
EXTT20=
EXTT21=
EXTT22=
EXTT23=
EXTT24=
EXTT25=
EXTT26=
EXTT27=
EXTT28=
EXTT29=
PLAYORDER=
